<svg version="1.1" id="Layer_1" xmlns="http://www.w3.org/2000/svg" xmlns:xlink="http://www.w3.org/1999/xlink" x="0px" y="0px"
	 width="100%" viewBox="0 0 496 496" enable-background="new 0 0 496 496" xml:space="preserve">
<path fill="#000000" opacity="1.000000" stroke="none" 
	d="
M229.021759,269.331512 
	C214.471649,268.942413 217.793900,271.840668 212.752045,258.172791 
	C209.525299,249.425415 206.327881,240.664734 203.311554,231.843597 
	C202.265701,228.785110 200.850861,227.250702 197.299652,227.282333 
	C178.970657,227.445602 160.638779,227.432968 142.309479,227.286011 
	C138.816650,227.258011 137.336746,228.701492 136.268524,231.815186 
	C132.432404,242.996857 128.375259,254.103119 124.346764,265.217987 
	C123.663895,267.102051 123.427711,269.737305 120.222153,268.826996 
	C119.066284,267.051788 120.109535,265.541565 120.644562,264.032013 
	C137.495819,216.485931 154.405457,168.960449 171.148117,121.376198 
	C172.429367,117.734825 174.270798,116.476379 178.006058,116.572250 
	C191.954880,116.930229 188.582123,114.615227 193.315567,127.105042 
	C210.306396,171.937668 227.159073,216.822662 244.025070,261.702484 
	C244.824677,263.830170 246.162231,265.874115 245.673630,268.864777 
	C240.368118,269.864075 234.911102,269.089203 229.021759,269.331512 
M199.142517,221.038956 
	C189.292038,193.552490 178.710556,166.328354 169.995850,137.786865 
	C166.554184,144.084717 140.349365,219.584579 140.205429,223.152145 
	C140.501266,223.293671 140.796570,223.557861 141.093048,223.559174 
	C159.580460,223.641129 178.067947,223.707199 196.555496,223.752716 
	C197.908447,223.756042 199.338074,223.701797 199.142517,221.038956 
z"/>
<path fill="#000000" opacity="1.000000" stroke="none" 
	d="
M266.964905,211.174622 
	C266.471436,199.770142 262.158203,195.637955 251.143112,195.193344 
	C248.896774,195.102661 246.069977,196.335175 244.445496,193.432739 
	C247.400696,191.202850 313.221954,190.638733 318.846039,192.741043 
	C318.857697,195.621231 316.621887,195.058945 314.949646,195.202682 
	C311.981781,195.457809 308.980743,195.017822 306.047791,196.039749 
	C299.607880,198.283600 296.392029,203.046219 296.355225,211.246033 
	C296.277435,228.570282 296.167450,245.897400 296.420807,263.218231 
	C296.491577,268.057800 294.979462,269.708099 290.174896,269.411957 
	C284.366577,269.053986 278.507904,269.103302 272.692657,269.399872 
	C268.278290,269.625000 266.876556,267.916748 266.915192,263.621765 
	C267.070892,246.298676 266.970978,228.973267 266.964905,211.174622 
z"/>
<path fill="#000000" opacity="1.000000" stroke="none" 
	d="
M364.772644,317.656677 
	C368.817200,317.102539 371.053894,318.734802 373.023987,321.678314 
	C380.062195,332.194092 386.939606,342.835144 395.091888,352.559479 
	C398.769806,356.946655 402.571045,361.113739 408.708405,361.965759 
	C409.802338,362.117584 410.430389,362.909058 410.079559,365.107178 
	C402.788666,365.551117 395.300751,365.354645 387.784851,364.983215 
	C371.509491,364.178986 360.112640,355.938660 351.905609,342.281799 
	C347.878876,335.581207 343.190063,329.279724 338.845490,322.767822 
	C337.964630,321.447540 336.454559,320.331360 337.209686,317.657043 
	C346.116760,317.657043 355.211212,317.657043 364.772644,317.656677 
z"/>
<path fill="#000000" opacity="1.000000" stroke="none" 
	d="
M313.936340,361.788635 
	C316.118530,361.928284 318.103363,361.492126 319.025970,363.687012 
	C315.728699,365.869843 249.299362,366.193939 244.623642,364.123199 
	C244.487213,361.884766 246.147507,361.912018 247.625916,361.830963 
	C250.119919,361.694275 252.655060,361.881012 255.108231,361.507294 
	C262.097443,360.442596 266.493042,355.775604 266.762268,348.623108 
	C267.081696,340.137299 267.059906,331.630707 266.902222,323.138397 
	C266.828094,319.144165 268.036835,317.387848 272.308380,317.582916 
	C278.626801,317.871368 284.976654,317.860626 291.296448,317.589539 
	C295.344177,317.415985 296.491882,319.034607 296.378693,322.842560 
	C296.165924,330.000732 296.306458,337.169983 296.332672,344.334534 
	C296.378143,356.756470 300.993408,361.439514 313.936340,361.788635 
z"/>
<path fill="#000000" opacity="1.000000" stroke="none" 
	d="
M331.815796,255.801300 
	C329.685333,257.922333 330.677307,259.579468 331.783905,261.398193 
	C333.134491,263.617920 335.397186,265.357361 335.682709,268.786194 
	C329.285400,268.786194 323.002930,268.786194 316.721710,268.786194 
	C316.129944,266.806549 317.567657,265.925446 318.519196,264.863312 
	C330.851105,251.098526 343.211060,237.358887 355.539337,223.590851 
	C359.761749,218.875336 364.035217,214.153885 366.954895,208.489273 
	C370.461731,201.685440 368.456482,197.879272 360.919678,196.275604 
	C357.479889,195.543716 354.023834,195.273331 350.513000,195.268341 
	C348.839508,195.265961 346.689392,195.866333 346.039490,193.269806 
	C346.831665,191.070435 348.762421,191.698090 350.264343,191.692398 
	C365.917358,191.633072 381.570770,191.626221 397.223755,191.683716 
	C398.719788,191.689209 401.114044,190.939056 401.288757,193.308426 
	C401.471039,195.780838 399.071991,195.152206 397.542419,195.352997 
	C385.956177,196.873871 378.102417,204.486465 370.743713,212.428574 
	C357.621063,226.591629 344.920105,241.145401 331.815796,255.801300 
z"/>
<path fill="#000000" opacity="1.000000" stroke="none" 
	d="
M220.453369,301.272034 
	C226.644485,299.591095 232.590286,297.944336 234.070679,290.653229 
	C234.324890,289.401306 235.134232,288.217834 235.862915,287.119324 
	C236.549225,286.084656 237.604630,285.501587 238.879578,286.123230 
	C240.217697,286.775665 240.173477,287.997314 239.764374,289.138458 
	C238.922058,291.488007 237.990829,293.807465 237.034454,296.113708 
	C236.385300,297.679077 235.586884,299.266693 236.929794,300.782135 
	C238.399780,302.440979 240.251968,301.826996 242.051788,301.387848 
	C243.922714,300.931335 245.258224,298.947235 247.508316,299.419800 
	C246.078110,303.019012 241.756775,305.442505 237.635056,304.097839 
	C232.799011,302.520233 228.153320,304.426208 223.437027,303.945648 
	C222.466309,303.846710 221.163757,304.512299 220.521164,304.077026 
	C215.095215,300.401642 209.820526,303.769867 204.480270,304.165833 
	C199.490097,304.535889 194.657150,302.378845 189.456802,303.781250 
	C184.254211,305.184235 178.902786,302.789917 173.263733,303.779816 
	C169.856995,304.377808 165.066788,305.223816 161.121292,302.976990 
	C160.334000,302.528656 158.782730,302.992737 157.766861,303.446289 
	C152.199020,305.932159 149.678802,301.058014 146.346085,298.569916 
	C145.024658,297.583405 145.475266,295.480011 147.868225,294.377289 
	C149.073257,297.065430 153.121033,296.834137 153.705414,300.658661 
	C153.917084,302.044006 155.962967,301.255096 157.262604,301.021057 
	C160.980652,300.351562 163.411194,297.044128 167.028030,296.247345 
	C171.770996,302.224304 171.867981,302.417847 179.231995,298.728119 
	C182.019318,297.331512 182.095215,299.794403 183.251282,300.647919 
	C185.148224,300.045105 184.185883,297.254028 186.327179,297.005432 
	C192.513977,302.672150 193.416138,302.529205 199.162811,294.956604 
	C199.974045,295.237335 199.841385,295.891327 199.887589,296.558014 
	C200.286530,302.316559 202.131653,303.477020 206.988907,300.196564 
	C211.881851,296.892059 215.936356,298.127106 220.453369,301.272034 
z"/>
<path fill="#000000" opacity="1.000000" stroke="none" 
	d="
M361.686798,299.622620 
	C364.616119,297.312958 368.122772,297.922638 369.889862,299.371216 
	C374.522827,303.169281 377.792664,301.153076 381.324677,298.167145 
	C382.337677,297.310760 383.385620,296.462921 384.810577,296.471161 
	C388.908783,302.005432 388.908783,302.005432 398.474854,299.251709 
	C396.880157,302.853302 393.580444,304.354401 390.927185,303.960480 
	C385.156952,303.103851 379.554108,303.576660 373.879822,304.106598 
	C373.719635,304.121582 373.504272,304.115997 373.394989,304.024261 
	C368.501801,299.917938 363.427124,303.530243 358.437531,303.667908 
	C357.617493,303.690521 356.673798,304.052521 355.999329,303.763245 
	C350.949066,301.597260 345.945374,303.170868 340.954010,303.874542 
	C339.058289,304.141785 337.274048,304.174713 335.627991,303.226837 
	C334.014252,302.297546 332.546082,302.372345 330.904327,303.158905 
	C327.725220,304.682068 324.552063,305.134735 321.568542,302.604584 
	C320.511658,301.708313 319.300659,302.030792 318.274933,302.583618 
	C312.909546,305.475433 308.862152,302.973450 305.053192,299.448120 
	C303.147583,297.684418 303.637024,296.077393 305.668427,293.921570 
	C306.973511,297.182159 311.905212,296.615265 311.091217,301.020538 
	C316.243378,301.622803 319.562958,300.032440 322.835968,295.567535 
	C324.129120,303.289917 326.153870,304.011749 332.556915,299.008331 
	C334.508820,297.483124 336.425323,295.912659 338.263336,294.438873 
	C338.825470,294.698853 339.350647,294.806244 339.369202,294.970734 
	C339.633820,297.318268 339.943695,300.227753 342.683197,300.275940 
	C345.444702,300.324554 347.284332,298.208954 347.922455,295.146271 
	C348.459259,292.570007 349.557770,290.097382 350.547028,287.634857 
	C350.997192,286.514343 351.948914,285.583740 353.287811,286.044098 
	C354.595490,286.493744 354.729797,287.782043 354.605713,288.981537 
	C354.270538,292.220856 352.026184,294.705811 350.881165,297.946533 
	C354.136292,300.274445 357.132812,303.099396 361.686798,299.622620 
z"/>
<path fill="#000000" opacity="1.000000" stroke="none" 
	d="
M310.666077,272.839294 
	C315.182587,274.085205 315.863403,276.641998 313.880005,280.139923 
	C311.761230,283.876556 307.997742,284.898285 304.525726,282.658020 
	C306.472473,281.300262 309.211334,282.102142 310.852173,280.154297 
	C311.716125,279.128723 312.868134,278.200653 312.283234,276.704254 
	C311.789429,275.440887 310.517365,275.226624 309.325073,275.320251 
	C307.681427,275.449280 306.004639,275.570526 304.422058,275.994049 
	C295.243134,278.450592 287.437164,283.510529 279.860474,289.024933 
	C277.381592,290.829071 277.506561,292.442108 279.210297,294.813141 
	C284.968658,302.826782 290.872955,304.505005 299.840027,300.317200 
	C300.758423,299.888336 301.582947,299.388123 302.592957,300.052734 
	C296.710571,308.755951 287.716797,306.777588 274.678894,293.936646 
	C271.061920,295.159515 269.899811,298.787842 267.627136,301.320312 
	C263.501801,305.917267 259.758118,307.174805 255.880814,305.092224 
	C255.022644,304.631317 254.073471,304.128265 254.428436,302.840729 
	C264.403595,303.380066 268.782898,299.272827 272.101105,286.191895 
	C270.355316,285.144226 267.136169,286.653625 266.537476,282.714264 
	C269.820618,283.834869 272.524445,282.614777 275.241608,280.817261 
	C276.979248,283.767212 274.230164,286.115509 275.064117,289.258484 
	C285.946777,281.691742 296.580750,273.840302 310.666077,272.839294 
z"/>
<path fill="#000000" opacity="1.000000" stroke="none" 
	d="
M141.008270,297.709167 
	C142.300003,298.736664 144.025940,298.271027 144.759247,300.073273 
	C143.116226,301.273560 139.523743,300.025208 140.121689,303.742889 
	C138.037628,303.260742 138.121765,301.709930 137.498260,300.608795 
	C135.670197,297.380341 131.908615,296.908386 129.298019,299.467682 
	C123.324219,305.324036 120.353401,305.697784 113.090515,301.535797 
	C110.327652,299.952545 107.835045,298.043671 105.717659,295.651001 
	C104.084137,293.805054 102.807396,291.718597 104.271164,289.372925 
	C105.624184,287.204742 108.052238,287.586121 110.186493,287.953766 
	C115.602013,288.886566 120.917107,290.304260 125.961853,292.457794 
	C129.249680,293.861267 130.820251,292.884735 131.925995,289.737122 
	C133.448242,285.403839 135.231827,281.162384 137.087326,276.410736 
	C139.827820,278.426117 138.957321,280.885590 139.249390,282.984406 
	C139.921478,287.813690 137.805054,292.915985 141.008270,297.709167 
M124.804092,300.537628 
	C126.098595,299.313995 127.739914,298.279694 127.305595,296.116425 
	C120.059319,291.708649 110.498497,289.632050 106.578033,291.588623 
	C109.793533,298.357880 117.763641,302.592499 124.804092,300.537628 
M133.397430,292.317017 
	C132.758087,294.053772 133.096130,295.405548 135.159882,295.419647 
	C136.763474,295.430634 136.686584,293.949707 136.712524,292.811218 
	C136.758301,290.801758 136.725342,288.790436 136.725342,286.779907 
	C136.434708,286.780609 136.144058,286.781342 135.853424,286.782043 
	C135.112122,288.424805 134.370819,290.067535 133.397430,292.317017 
z"/>
<path fill="#000000" opacity="1.000000" stroke="none" 
	d="
M233.790833,328.938416 
	C233.875244,325.868134 235.314255,324.636780 237.889999,324.793274 
	C239.773926,324.907715 240.850479,325.992126 241.100418,327.889404 
	C241.335342,329.672699 241.012100,331.368408 239.183899,331.954285 
	C236.755585,332.732544 234.588409,332.333313 233.790833,328.938416 
z"/>
<path fill="#000000" opacity="1.000000" stroke="none" 
	d="
M129.946198,325.897949 
	C131.811691,326.070984 133.517212,327.395874 134.862076,325.172272 
	C136.798050,327.128357 136.240265,329.275818 136.927536,331.470703 
	C134.236191,331.470703 131.732376,331.470703 129.293777,331.470703 
	C128.060669,329.449219 129.254883,327.839966 129.946198,325.897949 
z"/>
<path fill="#000000" opacity="1.000000" stroke="none" 
	d="
M161.700623,324.799500 
	C166.186050,326.540558 162.679901,329.401672 163.745163,331.960114 
	C161.741730,331.700989 160.361633,331.522491 158.715073,331.309509 
	C159.251099,328.806335 156.931793,325.590576 161.700623,324.799500 
z"/>
<path fill="#000000" opacity="1.000000" stroke="none" 
	d="
M150.311218,331.414276 
	C148.382767,331.676483 146.660767,331.676483 144.702103,331.676483 
	C144.588531,328.827026 145.562256,326.825623 147.557907,325.127716 
	C149.758636,326.694641 150.277145,328.855042 150.311218,331.414276 
z"/>
<path fill="#000000" opacity="1.000000" stroke="none" 
	d="
M225.259430,326.787598 
	C225.324387,328.550537 225.324387,330.005157 225.324387,331.471436 
	C223.490829,331.471436 221.957977,331.471436 220.275864,331.471436 
	C219.190994,329.723816 219.619354,327.811523 220.048645,325.575684 
	C221.830582,325.554840 223.565506,325.548462 225.259430,326.787598 
z"/>
<path fill="#000000" opacity="1.000000" stroke="none" 
	d="
M172.743805,331.747314 
	C171.075912,325.819031 171.206268,325.562012 175.968094,325.173187 
	C176.085648,327.328979 175.181137,329.513702 176.161560,331.423126 
	C175.024567,332.344025 174.047867,331.966766 172.743805,331.747314 
z"/>
<path fill="#000000" opacity="1.000000" stroke="none" 
	d="
M184.675812,328.173096 
	C184.690903,325.422760 185.640594,324.309601 188.485489,325.250824 
	C187.139557,327.385681 191.031754,330.391296 187.485199,331.917816 
	C184.937790,333.014282 184.753113,330.470947 184.675812,328.173096 
z"/>
</svg>